<?xml version="1.0" encoding="utf-8"?>
<!-- Generator: Adobe Illustrator 24.1.2, SVG Export Plug-In . SVG Version: 6.00 Build 0)  -->
<svg version="1.1" id="Layer_1" xmlns="http://www.w3.org/2000/svg" xmlns:xlink="http://www.w3.org/1999/xlink" x="0px" y="0px"
	 viewBox="0 0 412 315" style="enable-background:new 0 0 412 315;" xml:space="preserve">
<style type="text/css">
	.st0{fill:#62DCD1;}
	.st1{fill:#15D29B;}
	.st2{fill:#15BC85;}
	.st3{opacity:0.1;fill:#666666;}
	.st4{opacity:0.25;fill:#666666;}
	.st5{font-family:'TimesNewRomanPSMT';}
	.st6{font-size:18px;}
	.st7{fill:none;stroke:#000000;stroke-miterlimit:10;}
	.st8{font-family:'TimesNewRomanPS-BoldMT';}
	.st9{font-size:16px;}
	.st10{stroke:#000000;stroke-width:0.75;stroke-miterlimit:10;}
	.st11{fill:#231F20;}
</style>
<rect x="18.08" y="13.12" class="st0" width="122.33" height="57.69"/>
<rect x="141.25" y="13.12" class="st1" width="122.33" height="57.69"/>
<rect x="264" y="13.12" class="st2" width="131.57" height="57.69"/>
<rect x="19.37" y="71.12" class="st3" width="376.63" height="95.88"/>
<rect x="18.33" y="199.12" class="st4" width="377.67" height="98.88"/>
<text transform="matrix(1 0 0 1 160.2029 93.0149)" class="st5 st6">2021/06/28</text>
<text transform="matrix(1 0 0 1 61.2104 93.0156)" class="st5 st6">01001</text>
<text transform="matrix(1 0 0 1 326.0784 93.0155)" class="st5 st6">3</text>
<g>
	<path d="M395,14.12V297H20V14.12H395 M396,13.12H19V298h377V13.12L396,13.12z"/>
</g>
<line class="st7" x1="19.9" y1="69.48" x2="396" y2="69.48"/>
<line class="st7" x1="141" y1="13.4" x2="141" y2="297.8"/>
<line class="st7" x1="263.83" y1="13.4" x2="263.83" y2="297.8"/>
<text transform="matrix(1 0 0 1 47.4827 45.4928)" class="st8 st9">Spatial id</text>
<text transform="matrix(1 0 0 1 160.7003 43.9193)" class="st8 st9">Temporal id</text>
<text transform="matrix(1 0 0 1 272.345 37.3423)"><tspan x="0" y="0" class="st8 st9">Social distancing </tspan><tspan x="37.12" y="19.2" class="st8 st9">policy</tspan></text>
<line class="st10" x1="18.45" y1="134.12" x2="394.72" y2="134.12"/>
<line class="st10" x1="18.5" y1="166.91" x2="394.76" y2="166.91"/>
<line class="st10" x1="18.5" y1="199.49" x2="394.76" y2="199.49"/>
<line class="st10" x1="18.5" y1="232.27" x2="394.76" y2="232.27"/>
<line class="st10" x1="18.5" y1="265.06" x2="394.76" y2="265.06"/>
<text transform="matrix(1 0 0 1 160.2028 125.9457)" class="st5 st6">2021/07/05</text>
<text transform="matrix(1 0 0 1 61.2102 125.9465)" class="st5 st6">01001</text>
<text transform="matrix(1 0 0 1 326.0783 125.9464)" class="st5 st6">1</text>
<text transform="matrix(1 0 0 1 160.2026 286.946)" class="st5 st6">2021/07/12</text>
<text transform="matrix(1 0 0 1 61.2101 286.9467)" class="st5 st6">56045</text>
<text transform="matrix(1 0 0 1 327.0781 286.9466)" class="st5 st6">2</text>
<text transform="matrix(1 0 0 1 160.2026 255.946)" class="st5 st6">2021/07/05</text>
<text transform="matrix(1 0 0 1 61.2101 255.9467)" class="st5 st6">56045</text>
<text transform="matrix(1 0 0 1 327.0781 255.9466)" class="st5 st6">3</text>
<text transform="matrix(1 0 0 1 160.2026 223.946)" class="st5 st6">2021/06/28</text>
<text transform="matrix(1 0 0 1 61.2101 223.9467)" class="st5 st6">56045</text>
<text transform="matrix(1 0 0 1 327.0781 223.9466)" class="st5 st6">2</text>
<text transform="matrix(1 0 0 1 160.2026 156.946)" class="st5 st6">2021/07/12</text>
<text transform="matrix(1 0 0 1 61.2101 156.9467)" class="st5 st6">01001</text>
<text transform="matrix(1 0 0 1 326.0781 156.9466)" class="st5 st6">2</text>
<line class="st10" x1="18.47" y1="104.01" x2="394.73" y2="104.01"/>
<text transform="matrix(1 0 0 1 79.8609 180.1597)"><tspan x="0" y="0" class="st11 st5 st9">. </tspan><tspan x="0" y="4" class="st11 st5 st9">. </tspan><tspan x="0" y="8" class="st11 st5 st9">.</tspan></text>
<text transform="matrix(1 0 0 1 198.523 180.0047)"><tspan x="0" y="0" class="st11 st5 st9">. </tspan><tspan x="0" y="4" class="st11 st5 st9">. </tspan><tspan x="0" y="8" class="st11 st5 st9">.</tspan></text>
<text transform="matrix(1 0 0 1 329.523 180.0047)"><tspan x="0" y="0" class="st11 st5 st9">. </tspan><tspan x="0" y="4" class="st11 st5 st9">. </tspan><tspan x="0" y="8" class="st11 st5 st9">.</tspan></text>
</svg>
