<?xml version="1.0" encoding="utf-8"?>
<!-- Generator: Adobe Illustrator 24.1.2, SVG Export Plug-In . SVG Version: 6.00 Build 0)  -->
<svg version="1.1" id="Layer_1" xmlns="http://www.w3.org/2000/svg" xmlns:xlink="http://www.w3.org/1999/xlink" x="0px" y="0px"
	 viewBox="0 0 638 462" style="enable-background:new 0 0 638 462;" xml:space="preserve">
<style type="text/css">
	.st0{opacity:0.22;fill:#666666;}
	.st1{fill-rule:evenodd;clip-rule:evenodd;fill:#666666;stroke:#000000;stroke-miterlimit:10;}
	.st2{fill:#FFFFFF;stroke:#FFFFFF;stroke-width:0.5;stroke-miterlimit:10;}
	.st3{font-family:'TimesNewRomanPSMT';}
	.st4{font-size:15px;}
	.st5{stroke:#000000;stroke-width:0.75;stroke-miterlimit:10;}
	.st6{fill:#FFFFFF;}
	.st7{font-family:'TimesNewRomanPS-BoldMT';}
	.st8{fill:none;stroke:#000000;stroke-miterlimit:10;}
	.st9{fill:#231F20;}
	.st10{font-size:14px;}
</style>
<rect x="461" y="306" class="st0" width="92" height="30"/>
<rect x="462" y="57" class="st0" width="90" height="30"/>
<g>
	<path d="M552,258.41V451H108V258.41H552 M553,257.41H107V452h446V257.41L553,257.41z"/>
</g>
<rect x="107.05" y="257.64" class="st1" width="445.62" height="48"/>
<g>
	<text transform="matrix(1 0 0 1 117.0063 284.3171)" class="st2 st3 st4">Spatial id</text>
</g>
<line class="st5" x1="107" y1="335.64" x2="553" y2="335.64"/>
<line class="st5" x1="107" y1="392.64" x2="553" y2="392.64"/>
<line class="st5" x1="107" y1="421.64" x2="552.34" y2="421.64"/>
<g>
	<text transform="matrix(1 0 0 1 196.1682 285.0603)" class="st6 st7 st4">2020/01/01</text>
</g>
<g>
	<text transform="matrix(1 0 0 1 289.1682 285.0603)" class="st6 st7 st4">2020/01/08</text>
</g>
<text transform="matrix(1 0 0 1 126.1683 440.6204)" class="st3 st4">56045</text>
<g>
	<text transform="matrix(1 0 0 1 407.3584 286.4202)" class="st6 st7 st4">...</text>
</g>
<g>
	<text transform="matrix(1 0 0 1 473.2881 285.9402)" class="st6 st7 st4">2021/06/13</text>
</g>
<line class="st8" x1="185" y1="451.91" x2="185" y2="257.32"/>
<line class="st8" x1="276.5" y1="451.91" x2="276.5" y2="257"/>
<line class="st8" x1="368.5" y1="451.91" x2="368.5" y2="257.64"/>
<line class="st8" x1="461.5" y1="451.91" x2="461.5" y2="257.64"/>
<text transform="matrix(1 0 0 1 126.6245 325.2617)" class="st3 st4">01001</text>
<text transform="matrix(1 0 0 1 126.6246 353.1016)" class="st3 st4">01003</text>
<text transform="matrix(1 0 0 1 288.9683 440.6204)" class="st3 st4">9.5</text>
<text transform="matrix(1 0 0 1 289.4245 325.2617)" class="st3 st4">1.8</text>
<text transform="matrix(1 0 0 1 289.4246 353.1016)" class="st3 st4">4.9</text>
<text transform="matrix(1 0 0 1 195.9683 440.6204)" class="st3 st4">11.2</text>
<text transform="matrix(1 0 0 1 196.4245 325.2617)" class="st3 st4">2</text>
<text transform="matrix(1 0 0 1 196.4246 353.1016)" class="st3 st4">5</text>
<text transform="matrix(1 0 0 1 406.3961 440.6204)" class="st3 st4">...</text>
<text transform="matrix(1 0 0 1 406.8524 325.2618)" class="st3 st4">...</text>
<text transform="matrix(1 0 0 1 406.8524 353.1016)" class="st3 st4">...</text>
<text transform="matrix(1 0 0 1 473.6152 440.6204)" class="st3 st4">10</text>
<text transform="matrix(1 0 0 1 474.0715 325.2617)" class="st3 st4">3</text>
<text transform="matrix(1 0 0 1 474.0715 353.1016)" class="st3 st4">6</text>
<text transform="matrix(1 0 0 1 142.2316 405.6666)"><tspan x="0" y="0" class="st9 st3 st10">. </tspan><tspan x="0" y="4" class="st9 st3 st10">. </tspan><tspan x="0" y="8" class="st9 st3 st10">.</tspan></text>
<text transform="matrix(1 0 0 1 199.2317 405.6668)"><tspan x="0" y="0" class="st9 st3 st10">. </tspan><tspan x="0" y="4" class="st9 st3 st10">. </tspan><tspan x="0" y="8" class="st9 st3 st10">.</tspan></text>
<text transform="matrix(1 0 0 1 294.2316 405.6663)"><tspan x="0" y="0" class="st9 st3 st10">. </tspan><tspan x="0" y="4" class="st9 st3 st10">. </tspan><tspan x="0" y="8" class="st9 st3 st10">.</tspan></text>
<text transform="matrix(1 0 0 1 476.2316 405.6663)"><tspan x="0" y="0" class="st9 st3 st10">. </tspan><tspan x="0" y="4" class="st9 st3 st10">. </tspan><tspan x="0" y="8" class="st9 st3 st10">.</tspan></text>
<text transform="matrix(1 0 0 1 412.2314 405.6666)"><tspan x="0" y="0" class="st9 st3 st10">. </tspan><tspan x="0" y="4" class="st9 st3 st10">. </tspan><tspan x="0" y="8" class="st9 st3 st10">.</tspan></text>
<g>
	<path d="M552.14,9.31V230h-444V9.31H552.14 M553.14,8.31h-446V231h446V8.31L553.14,8.31z"/>
</g>
<rect x="107.19" y="8.54" class="st1" width="445.62" height="48"/>
<text transform="matrix(1 0 0 1 117.144 35.2171)" class="st2 st3 st4">Spatial id</text>
<line class="st5" x1="107.14" y1="86.54" x2="553.14" y2="86.54"/>
<line class="st5" x1="107.14" y1="115.54" x2="553.14" y2="115.54"/>
<line class="st5" x1="107.14" y1="144.54" x2="552.48" y2="144.54"/>
<line class="st5" x1="107.14" y1="173.54" x2="552.48" y2="173.54"/>
<text transform="matrix(1 0 0 1 196.306 35.9603)" class="st6 st7 st4">2020/01/01</text>
<text transform="matrix(1 0 0 1 289.3059 35.9603)" class="st6 st7 st4">2020/01/08</text>
<text transform="matrix(1 0 0 1 126.306 221.5204)" class="st3 st4">56045</text>
<text transform="matrix(1 0 0 1 407.4961 37.3202)" class="st6 st7 st4">...</text>
<text transform="matrix(1 0 0 1 473.4258 36.8402)" class="st6 st7 st4">2021/06/13</text>
<line class="st8" x1="185.14" y1="231" x2="185.14" y2="8.27"/>
<line class="st8" x1="276.64" y1="231" x2="276.64" y2="7.9"/>
<line class="st8" x1="368.64" y1="231" x2="368.64" y2="8.64"/>
<line class="st8" x1="461.64" y1="231" x2="461.64" y2="8.64"/>
<text transform="matrix(1 0 0 1 126.7623 76.1617)" class="st3 st4">01001</text>
<text transform="matrix(1 0 0 1 126.7623 104.0016)" class="st3 st4">01003</text>
<text transform="matrix(1 0 0 1 126.7623 162.8414)" class="st3 st4">01007</text>
<text transform="matrix(1 0 0 1 289.106 221.5204)" class="st3 st4">9.5</text>
<text transform="matrix(1 0 0 1 289.5622 76.1617)" class="st3 st4">1.8</text>
<text transform="matrix(1 0 0 1 289.5623 104.0016)" class="st3 st4">4.9</text>
<text transform="matrix(1 0 0 1 289.5622 162.8414)" class="st3 st4">NA</text>
<text transform="matrix(1 0 0 1 196.106 221.5204)" class="st3 st4">11.2</text>
<text transform="matrix(1 0 0 1 196.5622 76.1617)" class="st3 st4">2</text>
<text transform="matrix(1 0 0 1 196.5623 104.0016)" class="st3 st4">5</text>
<text transform="matrix(1 0 0 1 196.5622 162.8414)" class="st3 st4">7.5</text>
<text transform="matrix(1 0 0 1 406.5338 221.5204)" class="st3 st4">...</text>
<text transform="matrix(1 0 0 1 406.9901 76.1618)" class="st3 st4">...</text>
<text transform="matrix(1 0 0 1 406.9901 104.0016)" class="st3 st4">...</text>
<text transform="matrix(1 0 0 1 406.9901 162.8415)" class="st3 st4">...</text>
<text transform="matrix(1 0 0 1 473.7529 221.5204)" class="st3 st4">10</text>
<text transform="matrix(1 0 0 1 474.2092 76.1617)" class="st3 st4">NA</text>
<text transform="matrix(1 0 0 1 474.2092 104.0016)" class="st3 st4">6</text>
<text transform="matrix(1 0 0 1 474.2092 162.8414)" class="st3 st4">8.2</text>
<text transform="matrix(1 0 0 1 142.3693 186.5666)"><tspan x="0" y="0" class="st9 st3 st10">. </tspan><tspan x="0" y="4" class="st9 st3 st10">. </tspan><tspan x="0" y="8" class="st9 st3 st10">.</tspan></text>
<text transform="matrix(1 0 0 1 199.3694 186.5668)"><tspan x="0" y="0" class="st9 st3 st10">. </tspan><tspan x="0" y="4" class="st9 st3 st10">. </tspan><tspan x="0" y="8" class="st9 st3 st10">.</tspan></text>
<text transform="matrix(1 0 0 1 294.3693 186.5663)"><tspan x="0" y="0" class="st9 st3 st10">. </tspan><tspan x="0" y="4" class="st9 st3 st10">. </tspan><tspan x="0" y="8" class="st9 st3 st10">.</tspan></text>
<text transform="matrix(1 0 0 1 476.3693 186.5663)"><tspan x="0" y="0" class="st9 st3 st10">. </tspan><tspan x="0" y="4" class="st9 st3 st10">. </tspan><tspan x="0" y="8" class="st9 st3 st10">.</tspan></text>
<text transform="matrix(1 0 0 1 412.3691 186.5666)"><tspan x="0" y="0" class="st9 st3 st10">. </tspan><tspan x="0" y="4" class="st9 st3 st10">. </tspan><tspan x="0" y="8" class="st9 st3 st10">.</tspan></text>
<g>
	<g>
		<path d="M573,117c3.85,2.73,7.47,5.78,10.93,9c3.46,3.22,6.76,6.61,9.9,10.16c6.23,7.12,11.81,14.84,16.47,23.11
			c2.34,4.12,4.5,8.36,6.31,12.75c0.96,2.17,1.76,4.41,2.59,6.63c0.41,1.12,0.75,2.25,1.13,3.38c0.38,1.13,0.75,2.26,1.05,3.41
			l0.96,3.43l0.82,3.47c0.59,2.3,0.93,4.66,1.38,6.99c0.71,4.7,1.27,9.43,1.42,14.19c0.62,18.99-3.06,38.19-11.24,55.37
			c-8.13,17.18-20.12,32.4-34.53,44.6l-0.23-0.27c7.02-6.29,13.29-13.36,18.95-20.86c5.65-7.51,10.44-15.64,14.31-24.18
			c0.9-2.16,1.88-4.29,2.74-6.47l2.38-6.61l1.95-6.75c0.59-2.26,1.02-4.57,1.54-6.85l0.37-1.72l0.25-1.74l0.51-3.47
			c0.15-1.16,0.37-2.31,0.47-3.48l0.26-3.5c0.16-2.33,0.4-4.66,0.37-7l0.05-3.51l-0.1-3.51c-0.12-4.68-0.64-9.33-1.31-13.96
			c-0.44-2.3-0.75-4.62-1.32-6.89l-0.78-3.42l-0.93-3.39c-0.29-1.13-0.65-2.25-1.01-3.36c-0.37-1.11-0.7-2.24-1.09-3.34
			c-0.81-2.2-1.58-4.41-2.52-6.56c-0.86-2.18-1.88-4.29-2.83-6.43c-1.05-2.1-2.05-4.22-3.2-6.26c-4.45-8.26-9.86-16-15.88-23.22
			C587.09,129.55,580.41,122.83,573,117z"/>
		<g>
			<path d="M573,319c2.3-3.92,4.69-9.35,5.42-13.63l2.51,7.16l6.51,3.89C583.1,316.28,577.3,317.53,573,319z"/>
		</g>
	</g>
</g>
<path class="st5" d="M554.12,173.02"/>
<path class="st5" d="M108.12,173.02"/>
<line class="st5" x1="108.12" y1="202.02" x2="553.46" y2="202.02"/>
<rect x="108" y="115" class="st0" width="445" height="29"/>
<text transform="matrix(1 0 0 1 127.7623 132.8414)" class="st3 st4">01005</text>
<text transform="matrix(1 0 0 1 290.5622 132.8414)" class="st3 st4">NA</text>
<text transform="matrix(1 0 0 1 197.5622 132.8414)" class="st3 st4">NA</text>
<text transform="matrix(1 0 0 1 407.9901 132.8415)" class="st3 st4">...</text>
<text transform="matrix(1 0 0 1 475.2092 132.8414)" class="st3 st4">NA</text>
<line class="st5" x1="106.24" y1="363.86" x2="552.24" y2="363.86"/>
<text transform="matrix(1 0 0 1 127.3846 382.2416)" class="st3 st4">01007</text>
<text transform="matrix(1 0 0 1 290.1846 382.2416)" class="st3 st4">6.8</text>
<text transform="matrix(1 0 0 1 197.1846 382.2416)" class="st3 st4">7.5</text>
<text transform="matrix(1 0 0 1 407.6124 382.2416)" class="st3 st4">...</text>
<text transform="matrix(1 0 0 1 474.8315 382.2416)" class="st3 st4">8.2</text>
<rect x="277" y="364" class="st0" width="92" height="29"/>
<rect x="277" y="144" class="st0" width="92" height="30"/>
</svg>
