<svg id="Layer_1" data-name="Layer 1" xmlns="http://www.w3.org/2000/svg" viewBox="0 0 1237.25 584.75"><defs><style>.cls-1,.cls-5,.cls-6{fill:none;stroke:#000;stroke-miterlimit:10;}.cls-1{stroke-width:0.4px;}.cls-2,.cls-3{isolation:isolate;}.cls-2,.cls-4{font-size:16px;}.cls-2,.cls-4,.cls-7{font-family:TimesNewRomanPSMT, Times New Roman;}.cls-6{stroke-width:0.75px;stroke-dasharray:5 5;}.cls-7{font-size:21px;}</style></defs><rect class="cls-1" x="12.7" y="310.66" width="273.53" height="24.8"/><rect class="cls-1" x="12.7" y="280.88" width="273.53" height="24.8"/><rect class="cls-1" x="12.7" y="251.13" width="273.53" height="24.8"/><rect class="cls-1" x="12.7" y="221.36" width="273.53" height="24.8"/><rect class="cls-1" x="12.7" y="191.58" width="273.53" height="24.8"/><rect class="cls-1" x="12.7" y="161.81" width="273.53" height="24.8"/><rect class="cls-1" x="12.7" y="132.04" width="273.53" height="24.8"/><rect class="cls-1" x="12.7" y="102.26" width="273.53" height="24.8"/><rect class="cls-1" x="12.7" y="72.51" width="273.53" height="24.8"/><path class="cls-1" d="M231.27,396.69" transform="translate(-92.13 -73.63)"/><text class="cls-2" transform="translate(21.91 328.23) scale(1.06 1)">splitting_type</text><path class="cls-1" d="M231.27,337.15" transform="translate(-92.13 -73.63)"/><path class="cls-1" d="M231.27,307.37" transform="translate(-92.13 -73.63)"/><path class="cls-1" d="M231.27,247.85" transform="translate(-92.13 -73.63)"/><g class="cls-3"><text class="cls-3" x="-92.13" y="-73.63"/></g><path class="cls-1" d="M231.27,218.07" transform="translate(-92.13 -73.63)"/><path class="cls-1" d="M231.27,158.53" transform="translate(-92.13 -73.63)"/><path d="M114.07,245.88v1.61c.63-1.07,1.28-1.61,2-1.61a1.13,1.13,0,0,1,.76.26.79.79,0,0,1,.29.61.72.72,0,0,1-.72.73,1.11,1.11,0,0,1-.65-.27,1.09,1.09,0,0,0-.54-.27.49.49,0,0,0-.32.15,3.77,3.77,0,0,0-.77,1.06v3.43a2,2,0,0,0,.16.9.82.82,0,0,0,.38.35,1.78,1.78,0,0,0,.78.14v.28h-3.88V253a1.74,1.74,0,0,0,.86-.17.71.71,0,0,0,.29-.4,3.67,3.67,0,0,0,0-.76v-2.77a12.41,12.41,0,0,0,0-1.49.57.57,0,0,0-.2-.35.61.61,0,0,0-.36-.11,1.67,1.67,0,0,0-.58.12l-.08-.28,2.29-.88Z" transform="translate(-92.13 -73.63)"/><path d="M121.8,252.22a12.06,12.06,0,0,1-1.47,1,2.38,2.38,0,0,1-1,.2,1.76,1.76,0,0,1-1.3-.51,1.8,1.8,0,0,1-.51-1.34,1.58,1.58,0,0,1,.25-.9,3.18,3.18,0,0,1,1.18-1,19.24,19.24,0,0,1,2.8-1.14v-.28a2.21,2.21,0,0,0-.36-1.47,1.34,1.34,0,0,0-1-.4,1.2,1.2,0,0,0-.83.27.77.77,0,0,0-.32.6l0,.46a.74.74,0,0,1-.19.55.69.69,0,0,1-.51.2.64.64,0,0,1-.5-.21.76.76,0,0,1-.2-.55,1.55,1.55,0,0,1,.73-1.23,3.27,3.27,0,0,1,2-.57,3.76,3.76,0,0,1,1.65.32,1.48,1.48,0,0,1,.72.76,4,4,0,0,1,.15,1.38v2.43c0,.68,0,1.1,0,1.25a.56.56,0,0,0,.14.31.35.35,0,0,0,.22.08.41.41,0,0,0,.23-.06,5.13,5.13,0,0,0,.67-.57v.44a2.48,2.48,0,0,1-1.77,1.17.86.86,0,0,1-.65-.26A1.36,1.36,0,0,1,121.8,252.22Zm0-.51V249c-.84.32-1.38.54-1.62.67a2.78,2.78,0,0,0-.94.72,1.38,1.38,0,0,0-.28.82,1.29,1.29,0,0,0,.36.93,1.1,1.1,0,0,0,.82.37A3.11,3.11,0,0,0,121.8,251.71Z" transform="translate(-92.13 -73.63)"/><path d="M127.24,247.4a3.62,3.62,0,0,1,2.54-1.52,1.89,1.89,0,0,1,1.07.3,1.93,1.93,0,0,1,.71,1,4.26,4.26,0,0,1,.18,1.44v3a2.32,2.32,0,0,0,.12.92.63.63,0,0,0,.29.31,1.83,1.83,0,0,0,.75.11v.28h-3.75V253h.16a1.34,1.34,0,0,0,.74-.15.79.79,0,0,0,.29-.45,4.32,4.32,0,0,0,0-.74V248.7a2.78,2.78,0,0,0-.27-1.41,1,1,0,0,0-.91-.45,2.76,2.76,0,0,0-2,1v3.77a2.55,2.55,0,0,0,.09.9.73.73,0,0,0,.32.33,2,2,0,0,0,.82.11v.28h-3.75V253h.16a.92.92,0,0,0,.79-.28,2,2,0,0,0,.2-1.06V249a11.19,11.19,0,0,0-.06-1.57.71.71,0,0,0-.19-.39.61.61,0,0,0-.35-.1,1.61,1.61,0,0,0-.55.12l-.12-.28,2.28-.88h.36Z" transform="translate(-92.13 -73.63)"/><path d="M135.75,242.14v7.12l1.93-1.66a5.54,5.54,0,0,0,.71-.67.3.3,0,0,0,.07-.19.36.36,0,0,0-.14-.27.8.8,0,0,0-.45-.13v-.25h3.3v.25a3.22,3.22,0,0,0-1.13.2,3.64,3.64,0,0,0-1,.64l-2,1.7,2,2.32a15.05,15.05,0,0,0,1.09,1.21,2.18,2.18,0,0,0,.7.48,2.26,2.26,0,0,0,.72.08v.28h-3.69V253a1,1,0,0,0,.43-.09.28.28,0,0,0,.11-.23,1.2,1.2,0,0,0-.33-.58l-2.33-2.8v2.37a2.78,2.78,0,0,0,.1.91.67.67,0,0,0,.3.32,2.56,2.56,0,0,0,.83.1v.28h-3.86V253a2.41,2.41,0,0,0,.87-.13.62.62,0,0,0,.26-.27,2.27,2.27,0,0,0,.13-.89v-6.52a10.77,10.77,0,0,0-.06-1.52.65.65,0,0,0-.19-.38.56.56,0,0,0-.35-.1,1.54,1.54,0,0,0-.52.13l-.14-.27,2.25-.88Z" transform="translate(-92.13 -73.63)"/><path d="M144.6,245.88v5.75a2.46,2.46,0,0,0,.11.9.69.69,0,0,0,.3.33,1.83,1.83,0,0,0,.75.11v.28h-3.69V253a1.81,1.81,0,0,0,.75-.1.78.78,0,0,0,.3-.34,2.46,2.46,0,0,0,.11-.9v-2.75a9.37,9.37,0,0,0-.07-1.51A.56.56,0,0,0,143,247a.49.49,0,0,0-.34-.1,1.71,1.71,0,0,0-.56.12l-.12-.28,2.29-.88Zm-.68-3.74a.84.84,0,0,1,.59.23.77.77,0,0,1,0,1.12.81.81,0,0,1-.59.24.85.85,0,0,1-.6-.24.75.75,0,0,1-.25-.56.72.72,0,0,1,.25-.56A.85.85,0,0,1,143.92,242.14Z" transform="translate(-92.13 -73.63)"/><path d="M148.91,247.4a3.64,3.64,0,0,1,2.54-1.52,1.78,1.78,0,0,1,1.78,1.26,4,4,0,0,1,.19,1.44v3a2.59,2.59,0,0,0,.11.92.6.6,0,0,0,.3.31,1.77,1.77,0,0,0,.75.11v.28h-3.76V253H151a1.32,1.32,0,0,0,.74-.15.86.86,0,0,0,.3-.45,4.88,4.88,0,0,0,0-.74V248.7a2.78,2.78,0,0,0-.27-1.41,1,1,0,0,0-.91-.45,2.78,2.78,0,0,0-2,1v3.77a2.55,2.55,0,0,0,.09.9.79.79,0,0,0,.32.33,2.1,2.1,0,0,0,.83.11v.28h-3.76V253h.17a.89.89,0,0,0,.78-.28,1.89,1.89,0,0,0,.2-1.06V249a11.19,11.19,0,0,0-.06-1.57.65.65,0,0,0-.19-.39.57.57,0,0,0-.34-.1,1.66,1.66,0,0,0-.56.12l-.12-.28,2.29-.88h.35Z" transform="translate(-92.13 -73.63)"/><path d="M157.21,250.64a2.48,2.48,0,0,1-1.07-.89,2.3,2.3,0,0,1-.37-1.27,2.37,2.37,0,0,1,.85-1.83,3.11,3.11,0,0,1,2.17-.77,3.47,3.47,0,0,1,1.88.5h1.61a2.47,2.47,0,0,1,.41,0,.22.22,0,0,1,.09.07.49.49,0,0,1,.05.25.6.6,0,0,1-.05.28.1.1,0,0,1-.08.06,1.52,1.52,0,0,1-.42,0h-1a2.16,2.16,0,0,1,.47,1.43,2.19,2.19,0,0,1-.81,1.71,3.18,3.18,0,0,1-2.18.72,4.62,4.62,0,0,1-1.15-.16,2.12,2.12,0,0,0-.5.52.83.83,0,0,0-.12.38.36.36,0,0,0,.13.26,1.11,1.11,0,0,0,.54.18c.15,0,.54,0,1.16.05,1.13,0,1.87.06,2.21.11a2.18,2.18,0,0,1,1.23.54,1.45,1.45,0,0,1,.46,1.08,2.23,2.23,0,0,1-.88,1.65,4.91,4.91,0,0,1-3.37,1.14,5,5,0,0,1-2.7-.68c-.42-.26-.62-.53-.62-.81a.84.84,0,0,1,.09-.37,3.85,3.85,0,0,1,.58-.81q.06-.08.84-.84a2.68,2.68,0,0,1-.61-.44.59.59,0,0,1-.17-.43,1.19,1.19,0,0,1,.23-.64A5.52,5.52,0,0,1,157.21,250.64Zm-.08,2.61a3.88,3.88,0,0,0-.59.74,1.32,1.32,0,0,0-.2.64c0,.25.16.46.48.65a4.82,4.82,0,0,0,2.39.49,3.86,3.86,0,0,0,2.2-.5,1.33,1.33,0,0,0,.71-1.06.6.6,0,0,0-.42-.58,6.07,6.07,0,0,0-1.71-.2A28,28,0,0,1,157.13,253.25Zm1.52-7a1.33,1.33,0,0,0-1,.46,2.1,2.1,0,0,0-.41,1.41,3,3,0,0,0,.56,1.92,1.39,1.39,0,0,0,1.1.51,1.34,1.34,0,0,0,1-.44,2.05,2.05,0,0,0,.41-1.4,3,3,0,0,0-.57-1.95A1.36,1.36,0,0,0,158.65,246.26Z" transform="translate(-92.13 -73.63)"/><path d="M171.76,256.7H163v-.65h8.77Z" transform="translate(-92.13 -73.63)"/><path d="M174.4,247.41c.55-.52.87-.82,1-.9a3,3,0,0,1,.81-.46,2.34,2.34,0,0,1,.85-.17,2,2,0,0,1,1.23.39,1.89,1.89,0,0,1,.68,1.14,5.38,5.38,0,0,1,1.44-1.23,2.67,2.67,0,0,1,1.21-.3,2,2,0,0,1,1.08.3,1.93,1.93,0,0,1,.74.95,4.17,4.17,0,0,1,.18,1.42v3.08a2.63,2.63,0,0,0,.11.92.62.62,0,0,0,.3.3,1.66,1.66,0,0,0,.73.12v.28H181V253h.16a1.38,1.38,0,0,0,.76-.18.66.66,0,0,0,.27-.4,5.24,5.24,0,0,0,0-.76v-3.08a2.46,2.46,0,0,0-.22-1.23,1.14,1.14,0,0,0-1-.5,2.07,2.07,0,0,0-.89.21,4.8,4.8,0,0,0-1.07.77l0,.08,0,.34v3.41a2.74,2.74,0,0,0,.09.92.65.65,0,0,0,.33.3,2,2,0,0,0,.82.12v.28H176.4V253a1.93,1.93,0,0,0,.87-.14.8.8,0,0,0,.32-.42,3.85,3.85,0,0,0,0-.78v-3.08a2.21,2.21,0,0,0-.27-1.25,1.17,1.17,0,0,0-1-.5,1.88,1.88,0,0,0-.88.22,3.24,3.24,0,0,0-1.06.78v3.83a2.55,2.55,0,0,0,.1.92.67.67,0,0,0,.31.31,2,2,0,0,0,.82.11v.28h-3.75V253a1.76,1.76,0,0,0,.73-.11.67.67,0,0,0,.31-.33,2.5,2.5,0,0,0,.11-.9V248.9a10.76,10.76,0,0,0-.07-1.52.56.56,0,0,0-.19-.36.49.49,0,0,0-.34-.1,1.61,1.61,0,0,0-.55.12l-.13-.28,2.29-.88h.36Z" transform="translate(-92.13 -73.63)"/><path d="M186.61,248.79a3.57,3.57,0,0,0,.82,2.5,2.57,2.57,0,0,0,1.95.91,2.14,2.14,0,0,0,1.29-.39,2.86,2.86,0,0,0,.93-1.33l.25.16a3.62,3.62,0,0,1-1,2,2.73,2.73,0,0,1-2.09.88,3.15,3.15,0,0,1-2.34-1,3.67,3.67,0,0,1-1-2.69,4,4,0,0,1,1-2.87,3.37,3.37,0,0,1,2.51-1,2.86,2.86,0,0,1,2.09.79,2.79,2.79,0,0,1,.82,2.12Zm0-.45h3.51a2.67,2.67,0,0,0-.17-1,1.66,1.66,0,0,0-1.47-.94,1.78,1.78,0,0,0-1.23.5A2.12,2.12,0,0,0,186.61,248.34Z" transform="translate(-92.13 -73.63)"/><path d="M195.07,243.74v2.35h1.77v.55h-1.77v4.64a1.49,1.49,0,0,0,.21.94.68.68,0,0,0,.54.24,1,1,0,0,0,.53-.16,1,1,0,0,0,.4-.47h.32a2.39,2.39,0,0,1-.82,1.15,1.8,1.8,0,0,1-1.09.39,1.62,1.62,0,0,1-.75-.2,1.17,1.17,0,0,1-.53-.57,2.78,2.78,0,0,1-.18-1.15v-4.81h-1.2v-.26a3.08,3.08,0,0,0,.93-.58,4.7,4.7,0,0,0,.85-1,7.41,7.41,0,0,0,.53-1.09Z" transform="translate(-92.13 -73.63)"/><path d="M199.81,242.14v5.24a6.18,6.18,0,0,1,1.45-1.23,2.4,2.4,0,0,1,1.08-.27,1.87,1.87,0,0,1,1.11.34,1.94,1.94,0,0,1,.69,1.05,7.48,7.48,0,0,1,.15,1.83v2.53a2.38,2.38,0,0,0,.12.93.63.63,0,0,0,.28.3,1.72,1.72,0,0,0,.73.11v.28h-3.73V253h.18a1.34,1.34,0,0,0,.74-.15.91.91,0,0,0,.29-.45c0-.09,0-.33,0-.74V249.1a5.58,5.58,0,0,0-.13-1.54,1,1,0,0,0-.41-.55,1.23,1.23,0,0,0-.68-.18,2.06,2.06,0,0,0-.84.2,3.87,3.87,0,0,0-1.05.82v3.78a2.85,2.85,0,0,0,.08.92.7.7,0,0,0,.33.3,1.93,1.93,0,0,0,.81.12v.28h-3.76V253a1.78,1.78,0,0,0,.8-.15.52.52,0,0,0,.26-.3,2.43,2.43,0,0,0,.1-.89v-6.47a10.59,10.59,0,0,0-.06-1.51.64.64,0,0,0-.19-.38.54.54,0,0,0-.35-.11,2.4,2.4,0,0,0-.56.13l-.11-.27,2.26-.88Z" transform="translate(-92.13 -73.63)"/><path d="M209.77,245.88a3.44,3.44,0,0,1,2.77,1.24,3.65,3.65,0,0,1,.88,2.42,4.26,4.26,0,0,1-.49,1.94,3.37,3.37,0,0,1-1.34,1.49,3.75,3.75,0,0,1-1.91.5,3.3,3.3,0,0,1-2.73-1.29,3.89,3.89,0,0,1-.85-2.44,4,4,0,0,1,.52-2,3.39,3.39,0,0,1,1.36-1.44A3.65,3.65,0,0,1,209.77,245.88Zm-.26.51a1.76,1.76,0,0,0-.88.25,1.8,1.8,0,0,0-.72.86,4,4,0,0,0-.27,1.59,5.23,5.23,0,0,0,.66,2.69,2,2,0,0,0,1.73,1.13,1.64,1.64,0,0,0,1.33-.62,3.39,3.39,0,0,0,.52-2.15,4.7,4.7,0,0,0-.87-3A1.82,1.82,0,0,0,209.51,246.39Z" transform="translate(-92.13 -73.63)"/><path d="M219.9,252.45a3.83,3.83,0,0,1-1.09.78,2.71,2.71,0,0,1-1.14.24,2.91,2.91,0,0,1-2.17-1,3.52,3.52,0,0,1-.93-2.52,4.42,4.42,0,0,1,1-2.82,3.25,3.25,0,0,1,2.64-1.27,2.37,2.37,0,0,1,1.66.6v-1.32a10.59,10.59,0,0,0-.06-1.51.59.59,0,0,0-.2-.38.52.52,0,0,0-.33-.11,2,2,0,0,0-.57.13l-.11-.27,2.26-.88h.38v8.27a10.94,10.94,0,0,0,.06,1.54.72.72,0,0,0,.2.39.5.5,0,0,0,.32.11,1.93,1.93,0,0,0,.59-.14l.09.28-2.25.88h-.38Zm0-.55v-3.69a2.3,2.3,0,0,0-.3-1,1.61,1.61,0,0,0-.66-.66,1.64,1.64,0,0,0-.8-.22,1.75,1.75,0,0,0-1.3.62,3.37,3.37,0,0,0-.75,2.37,3.57,3.57,0,0,0,.73,2.42,2.11,2.11,0,0,0,1.62.84A2.09,2.09,0,0,0,219.9,251.9Z" transform="translate(-92.13 -73.63)"/><path d="M224.3,248.79a3.48,3.48,0,0,0,.82,2.5,2.57,2.57,0,0,0,1.94.91,2.2,2.2,0,0,0,1.3-.39,2.85,2.85,0,0,0,.92-1.33l.26.16a3.69,3.69,0,0,1-1,2,2.77,2.77,0,0,1-2.1.88,3.15,3.15,0,0,1-2.34-1,3.67,3.67,0,0,1-1-2.69,3.93,3.93,0,0,1,1-2.87,3.35,3.35,0,0,1,2.5-1,2.9,2.9,0,0,1,2.1.79,2.79,2.79,0,0,1,.82,2.12Zm0-.45h3.51a2.85,2.85,0,0,0-.18-1,1.57,1.57,0,0,0-.61-.69,1.61,1.61,0,0,0-.86-.25,1.78,1.78,0,0,0-1.23.5A2.16,2.16,0,0,0,224.3,248.34Z" transform="translate(-92.13 -73.63)"/><text class="cls-4" transform="translate(20.18 117.91) scale(1.06 1)">max_history_length</text><text class="cls-4" transform="translate(18.15 207.77) scale(1.06 1)">forced_covariates</text><text class="cls-4" transform="translate(20.37 239.43) scale(1.06 1)">feature_selection_type</text><text class="cls-4" transform="translate(20.37 268.8) scale(1.06 1)">feature_sets_indices</text><text class="cls-4" transform="translate(20.84 297.49) scale(1.06 1)">models</text><text class="cls-4" transform="translate(19.69 90.81) scale(1.06 1)">test_type</text><text class="cls-4" transform="translate(17.81 149.03) scale(1.06 1)">forecast_horizon</text><rect class="cls-1" x="12.69" y="42.75" width="273.53" height="24.8"/><text class="cls-4" transform="translate(19.68 61.06) scale(1.06 1)">data</text><rect class="cls-1" x="12.7" y="370.2" width="273.53" height="24.8"/><rect class="cls-1" x="12.7" y="340.43" width="273.53" height="24.8"/><path class="cls-1" d="M231.27,455.79" transform="translate(-92.13 -73.63)"/><text class="cls-2" transform="translate(22.78 387.78) scale(1.06 1)">instance_validation_size</text><text class="cls-4" transform="translate(20.84 357.04) scale(1.06 1)">instance_testing_size</text><rect class="cls-1" x="12.23" y="429.85" width="273.53" height="24.8"/><rect class="cls-1" x="12.23" y="400.08" width="273.53" height="24.8"/><path class="cls-1" d="M230.91,515.89" transform="translate(-92.13 -73.63)"/><text class="cls-2" transform="translate(21.55 447.43) scale(1.06 1)">fold_total_number</text><path class="cls-1" d="M230.91,456.34" transform="translate(-92.13 -73.63)"/><text class="cls-4" transform="translate(20.48 416.69) scale(1.06 1)">instance_random_partitioning</text><rect class="cls-1" x="12.23" y="489.4" width="273.53" height="24.8"/><rect class="cls-1" x="12.23" y="459.63" width="273.53" height="24.8"/><path class="cls-1" d="M230.91,575" transform="translate(-92.13 -73.63)"/><text class="cls-2" transform="translate(22.42 506.97) scale(1.06 1)">validation_performance_reports</text><text class="cls-4" transform="translate(20.48 476.24) scale(1.06 1)">performance_measures</text><rect class="cls-1" x="12.3" y="548.64" width="273.53" height="24.8"/><rect class="cls-1" x="12.3" y="518.86" width="273.53" height="24.8"/><path class="cls-1" d="M231,634.22" transform="translate(-92.13 -73.63)"/><text class="cls-2" transform="translate(22.48 566.21) scale(1.06 1)">save_predictions</text><text class="cls-4" transform="translate(20.54 535.47) scale(1.06 1)">testing_performance_reports</text><ellipse class="cls-5" cx="449.42" cy="307.31" rx="60" ry="37.69"/><text class="cls-4" transform="translate(405.12 311.44)">train_validate</text><ellipse class="cls-5" cx="629.24" cy="307.31" rx="60" ry="37.69"/><text class="cls-4" transform="translate(598.91 311.44)">train_test</text><ellipse class="cls-5" cx="808.33" cy="307.31" rx="60" ry="37.69"/><text class="cls-4" transform="translate(762.74 311.44)">predict_future</text><rect class="cls-1" x="954.58" y="383.31" width="274.22" height="24.8"/><rect class="cls-1" x="954.58" y="353.54" width="274.22" height="24.8"/><path class="cls-1" d="M1151.9,469.35" transform="translate(-92.13 -73.63)"/><text class="cls-2" transform="translate(962.55 400.89) scale(1.06 1)">best_history_length</text><text class="cls-4" transform="translate(961.48 370.15) scale(1.06 1)">best_model</text><rect class="cls-1" x="954.58" y="442.86" width="274.22" height="24.8"/><rect class="cls-1" x="954.58" y="413.09" width="274.22" height="24.8"/><path class="cls-1" d="M1151.9,528.44" transform="translate(-92.13 -73.63)"/><text class="cls-2" transform="translate(962.42 460.43) scale(1.06 1)">final_model</text><text class="cls-4" transform="translate(961.48 429.7) scale(1.06 1)">best_feature_sets_indices</text><rect class="cls-6" x="946.88" y="343.37" width="290" height="133.5" rx="10"/><path class="cls-5" d="M391.78,277.61H901V337" transform="translate(-92.13 -73.63)"/><path d="M901,343a30.1,30.1,0,0,0-4.76-8.55l4.76,1.72,4.75-1.72A30.31,30.31,0,0,0,901,343Z" transform="translate(-92.13 -73.63)"/><line class="cls-5" x1="628.88" y1="263.34" x2="628.88" y2="203.98"/><path d="M721,343a30.1,30.1,0,0,1,4.76-8.55L721,336.17l-4.75-1.72A30.31,30.31,0,0,1,721,343Z" transform="translate(-92.13 -73.63)"/><line class="cls-5" x1="448.87" y1="263.34" x2="448.87" y2="203.76"/><path d="M541,343a30.1,30.1,0,0,1,4.76-8.55L541,336.17l-4.76-1.72A30.1,30.1,0,0,1,541,343Z" transform="translate(-92.13 -73.63)"/><line class="cls-5" x1="628.87" y1="405.12" x2="628.87" y2="345.37"/><path d="M721,484.78a30.1,30.1,0,0,1,4.76-8.55L721,478l-4.76-1.72A30.1,30.1,0,0,1,721,484.78Z" transform="translate(-92.13 -73.63)"/><line class="cls-5" x1="448.87" y1="404.89" x2="448.87" y2="345.37"/><path d="M541,484.56a30,30,0,0,1,4.76-8.55L541,477.73,536.24,476A30,30,0,0,1,541,484.56Z" transform="translate(-92.13 -73.63)"/><line class="cls-5" x1="808.87" y1="405.12" x2="808.87" y2="345.37"/><path d="M901,484.78a30.1,30.1,0,0,1,4.76-8.55L901,478l-4.76-1.72A30.1,30.1,0,0,1,901,484.78Z" transform="translate(-92.13 -73.63)"/><line class="cls-5" x1="448.38" y1="410.87" x2="940.34" y2="410.87"/><path d="M1038.5,484.5a30.1,30.1,0,0,0-8.55,4.76l1.72-4.76-1.72-4.75A30.31,30.31,0,0,0,1038.5,484.5Z" transform="translate(-92.13 -73.63)"/><text class="cls-7" transform="translate(127.19 17.45)">Input</text><text class="cls-7" transform="translate(1062.69 329.91)">Output</text><rect class="cls-6" x="0.38" y="31.37" width="298" height="553" rx="10"/><line x1="509.88" y1="307.37" x2="568.88" y2="307.37"/><line class="cls-5" x1="509.88" y1="307.37" x2="562.84" y2="307.37"/><path d="M661,381a30.1,30.1,0,0,0-8.55,4.76l1.72-4.76-1.72-4.75A30.31,30.31,0,0,0,661,381Z" transform="translate(-92.13 -73.63)"/><line x1="688.88" y1="307.87" x2="747.88" y2="307.87"/><line class="cls-5" x1="688.88" y1="307.87" x2="741.84" y2="307.87"/><path d="M840,381.5a30.1,30.1,0,0,0-8.55,4.76l1.72-4.76-1.72-4.76A30.1,30.1,0,0,0,840,381.5Z" transform="translate(-92.13 -73.63)"/></svg>